<svg id="Layer_1" data-name="Layer 1" xmlns="http://www.w3.org/2000/svg" viewBox="0 0 3218.99 348.79"><title>back to progress</title><rect x="25.26" y="298.27" width="3168.46" height="25.26" style="fill:#26AD5E"/><polygon points="3193.72 25.26 3193.72 0 25.26 0 25.26 25.26 13.03 25.26 0 25.26 0 298.26 13.03 298.26 25.26 298.26 3218.99 298.26 3218.99 25.26 3193.72 25.26" style="fill:#26AD5E"/><rect x="25.26" y="323.53" width="3168.46" height="25.26" style="fill:#0b8746"/><polyline points="0 298.27 0 323.51 25.26 323.51 25.26 298.27" style="fill:#0b8746"/><polyline points="3193.72 298.27 3193.72 323.51 3218.99 323.51 3218.99 298.27" style="fill:#0b8746"/><path d="M129.42,238.78v-25h-25v-150h50v50h100v25h25v75h-25v25Zm25-25h75v-75h-75Z" style="fill:#fff"/><path d="M329.42,238.78v-25h-25v-25h25v-25h100v-25h-100v-25h125v25h25v100Zm25-25h75v-25h-75Z" style="fill:#fff"/><path d="M529.42,238.78v-25h-25v-75h25v-25h150v25h-125v75h125v25Z" style="fill:#fff"/><path d="M704.42,238.78v-175h50v100h50v-25h25v-25h50v25h-25v25h-25v25h25v25h25v25h-50v-25h-25v-25h-50v50Z" style="fill:#fff"/><path d="M1079.42,238.78v-100h-50v-25h50v-50h50v50h50v25h-50v100Z" style="fill:#fff"/><path d="M1229.42,238.78v-25h-25v-75h25v-25h125v25h25v75h-25v25Zm25-25h75v-75h-75Z" style="fill:#fff"/><path d="M1564.42,263.78v-150h150v25h25v50h-25v25h-100v50Zm50-75h75v-50h-75Z" style="fill:#fff"/><path d="M1819.42,138.78h25v25h-25v75h-50v-125h50Zm100-25v25h-75v-25Z" style="fill:#fff"/><path d="M1969.42,238.78v-25h-25v-75h25v-25h125v25h25v75h-25v25Zm25-25h75v-75h-75Z" style="fill:#fff"/><path d="M2169.42,263.78v-25h100v-25h-100v-25h-25v-50h25v-25h150v125h-25v25Zm25-75h75v-50h-75Z" style="fill:#fff"/><path d="M2419.42,138.78h25v25h-25v75h-50v-125h50Zm100-25v25h-75v-25Z" style="fill:#fff"/><path d="M2569.42,238.78v-25h-25v-75h25v-25h125v25h25v50h-125v25h100v25Zm25-75h75v-25h-75Z" style="fill:#fff"/><path d="M2744.42,238.78v-25h125v-25h-100v-25h-25v-25h25v-25h125v25h-100v25h100v25h25v25h-25v25Z" style="fill:#fff"/><path d="M2944.42,238.78v-25h125v-25h-100v-25h-25v-25h25v-25h125v25h-100v25h100v25h25v25h-25v25Z" style="fill:#fff"/></svg>