<?xml version="1.0" encoding="utf-8"?>
<!-- Generator: Adobe Illustrator 24.0.0, SVG Export Plug-In . SVG Version: 6.00 Build 0)  -->
<svg version="1.1" id="Layer_1" xmlns="http://www.w3.org/2000/svg" xmlns:xlink="http://www.w3.org/1999/xlink" x="0px" y="0px"
	 viewBox="0 0 100 100" style="enable-background:new 0 0 100 100;" xml:space="preserve">
<style type="text/css">
	.st0{fill:#FFFFFF;}
	.st1{stroke:#EE3824;stroke-miterlimit:10;}
	.st2{fill:#FFFFFF;stroke:#EE3824;stroke-miterlimit:10;}
	.st3{fill:#3261AD;}
	.st4{fill:#ED1C24;}
	.st5{fill:#F1E902;}
</style>
<rect x="532.6" y="-216.6" width="60" height="60"/>
<rect x="532.6" y="-216.6" class="st0" width="10" height="10"/>
<rect x="542.6" y="-206.6" class="st0" width="10" height="10"/>
<rect x="542.6" y="-216.6" class="st0" width="10" height="10"/>
<rect x="552.6" y="-216.6" class="st0" width="10" height="10"/>
<rect x="532.6" y="-206.6" class="st0" width="10" height="10"/>
<rect x="532.6" y="-196.6" class="st0" width="10" height="10"/>
<rect x="562.6" y="-216.6" class="st0" width="10" height="10"/>
<rect x="532.6" y="-186.6" class="st0" width="10" height="10"/>
<rect x="542.6" y="-176.6" class="st0" width="10" height="10"/>
<rect x="542.6" y="-166.6" class="st0" width="10" height="10"/>
<rect x="582.6" y="-206.6" class="st0" width="10" height="10"/>
<rect x="532.6" y="-166.6" width="10" height="10"/>
<rect x="582.6" y="-216.6" width="10" height="10"/>
<rect x="552.6" y="-186.6" class="st0" width="10" height="10"/>
<rect x="562.6" y="-196.6" class="st0" width="10" height="10"/>
<rect x="572.6" y="-206.6" class="st0" width="10" height="10"/>
<g>
	<rect x="856.1" y="-216.6" class="st1" width="60" height="60"/>
	<rect x="856.1" y="-216.6" class="st2" width="10" height="10"/>
	<rect x="866.1" y="-206.6" class="st2" width="10" height="10"/>
	<rect x="866.1" y="-216.6" class="st2" width="10" height="10"/>
	<rect x="876.1" y="-216.6" class="st2" width="10" height="10"/>
	<rect x="856.1" y="-206.6" class="st2" width="10" height="10"/>
	<rect x="856.1" y="-196.6" class="st2" width="10" height="10"/>
	<rect x="876.1" y="-196.6" class="st2" width="10" height="10"/>
	<rect x="866.1" y="-176.6" class="st2" width="10" height="10"/>
	<rect x="866.1" y="-166.6" class="st2" width="10" height="10"/>
	<rect x="906.1" y="-206.6" class="st2" width="10" height="10"/>
	<rect x="866.1" y="-186.6" class="st2" width="10" height="10"/>
	<rect x="886.1" y="-206.6" class="st2" width="10" height="10"/>
	<rect x="896.1" y="-206.6" class="st2" width="10" height="10"/>
</g>
<rect x="856.1" y="-96.6" class="st1" width="60" height="60"/>
<rect x="856.1" y="-96.6" class="st2" width="10" height="10"/>
<rect x="866.1" y="-86.6" class="st2" width="10" height="10"/>
<rect x="866.1" y="-96.6" class="st2" width="10" height="10"/>
<rect x="876.1" y="-96.6" class="st2" width="10" height="10"/>
<rect x="856.1" y="-86.6" class="st2" width="10" height="10"/>
<rect x="856.1" y="-76.6" class="st2" width="10" height="10"/>
<rect x="876.1" y="-76.6" class="st2" width="10" height="10"/>
<rect x="866.1" y="-56.6" class="st2" width="10" height="10"/>
<rect x="866.1" y="-46.6" class="st2" width="10" height="10"/>
<rect x="906.1" y="-86.6" class="st2" width="10" height="10"/>
<rect x="856.1" y="-46.6" class="st1" width="10" height="10"/>
<rect x="846.1" y="-46.6" class="st1" width="10" height="10"/>
<rect x="846.1" y="-56.6" class="st1" width="10" height="10"/>
<rect x="846.1" y="-66.6" class="st1" width="10" height="10"/>
<rect x="846.1" y="-76.6" class="st1" width="10" height="10"/>
<rect x="876.1" y="-106.6" class="st1" width="10" height="10"/>
<rect x="886.1" y="-106.6" class="st1" width="10" height="10"/>
<rect x="896.1" y="-106.6" class="st1" width="10" height="10"/>
<rect x="906.1" y="-106.6" class="st1" width="10" height="10"/>
<rect x="856.1" y="-76.6" class="st1" width="10" height="10"/>
<rect x="866.1" y="-86.6" class="st1" width="10" height="10"/>
<rect x="856.7" y="-86.6" class="st1" width="10" height="10"/>
<rect x="846.1" y="-96.6" class="st1" width="10" height="10"/>
<rect x="856.7" y="-106.6" class="st1" width="10" height="10"/>
<rect x="866.1" y="-96.6" class="st1" width="10" height="10"/>
<rect x="876.1" y="-96.6" class="st1" width="10" height="10"/>
<rect x="906.1" y="-96.6" class="st1" width="10" height="10"/>
<rect x="866.1" y="-66.6" class="st2" width="10" height="10"/>
<rect x="876.1" y="-56.6" class="st2" width="10" height="10"/>
<rect x="876.1" y="-46.6" class="st2" width="10" height="10"/>
<rect x="876.1" y="-66.6" class="st2" width="10" height="10"/>
<rect x="886.1" y="-86.6" class="st2" width="10" height="10"/>
<rect x="896.1" y="-86.6" class="st2" width="10" height="10"/>
<rect x="906.1" y="-76.6" class="st2" width="10" height="10"/>
<rect x="886.1" y="-76.6" class="st2" width="10" height="10"/>
<rect x="886.1" y="-66.6" class="st2" width="10" height="10"/>
<rect x="896.1" y="-76.6" class="st2" width="10" height="10"/>
<g>
	<rect x="736.1" y="-216.6" class="st1" width="60" height="60"/>
	<rect x="736.1" y="-216.6" class="st2" width="10" height="10"/>
	<rect x="746.1" y="-216.6" class="st2" width="10" height="10"/>
	<rect x="736.1" y="-206.6" class="st2" width="10" height="10"/>
	<rect x="746.1" y="-196.6" class="st2" width="10" height="10"/>
	<rect x="756.1" y="-196.6" class="st2" width="10" height="10"/>
	<rect x="746.1" y="-186.6" class="st2" width="10" height="10"/>
	<rect x="746.1" y="-176.6" class="st2" width="10" height="10"/>
	<rect x="746.1" y="-166.6" class="st2" width="10" height="10"/>
	<rect x="756.1" y="-206.6" class="st2" width="10" height="10"/>
	<rect x="766.1" y="-206.6" class="st2" width="10" height="10"/>
	<rect x="766.1" y="-186.6" class="st1" width="30" height="30"/>
	<rect x="776.1" y="-206.6" class="st2" width="10" height="10"/>
	<rect x="786.1" y="-206.6" class="st2" width="10" height="10"/>
</g>
<rect x="766.1" y="-186.6" class="st1" width="30" height="30"/>
<rect x="886.1" y="-186.6" class="st1" width="30" height="30"/>
<rect x="896.1" y="-56.6" class="st1" width="20" height="20"/>
<g id="fpP2EP.tif">
	
		<image style="overflow:visible;" width="197" height="255" id="Layer_0_1_" xlink:href="91B152040624DEAC.png"  transform="matrix(6.123234e-17 1 -1 6.123234e-17 700.0574 49.7899)">
	</image>
</g>
<g>
	<rect x="236.3" y="-85.2" class="st3" width="15.7" height="15.7"/>
	<rect x="252" y="-69.5" class="st3" width="15.7" height="15.7"/>
	<rect x="267.8" y="-53.8" class="st3" width="15.7" height="15.7"/>
	<rect x="362.3" y="-53.8" class="st3" width="15.7" height="15.7"/>
	<rect x="378" y="-69.5" class="st3" width="15.7" height="15.7"/>
	<rect x="393.8" y="-85.2" class="st3" width="15.7" height="15.7"/>
	<rect x="283.5" y="-38" class="st4" width="15.7" height="15.7"/>
	<rect x="299.2" y="-38" class="st4" width="15.7" height="15.7"/>
	<rect x="299.2" y="-53.8" class="st4" width="15.7" height="15.7"/>
	<rect x="330.8" y="-38" class="st4" width="15.7" height="15.7"/>
	<rect x="330.8" y="-53.8" class="st4" width="15.7" height="15.7"/>
	<rect x="283.5" y="-53.8" class="st5" width="15.7" height="15.7"/>
	<rect x="346.6" y="-38" class="st4" width="15.7" height="15.7"/>
	<rect x="346.6" y="-53.8" class="st5" width="15.7" height="15.7"/>
	<rect x="315.1" y="-53.8" class="st5" width="15.7" height="15.7"/>
	<rect x="315.1" y="-69.5" class="st5" width="15.7" height="15.7"/>
	<rect x="315.1" y="-22.3" class="st5" width="15.7" height="15.7"/>
	<rect x="315.1" y="-38" class="st5" width="15.7" height="15.7"/>
	
		<rect x="330.9" y="-22.3" transform="matrix(-1.836970e-16 1 -1 -1.836970e-16 324.3543 -353.1782)" class="st5" width="15.7" height="15.7"/>
	
		<rect x="346.6" y="-22.3" transform="matrix(-1.836970e-16 1 -1 -1.836970e-16 340.0956 -368.9195)" class="st5" width="15.7" height="15.7"/>
	
		<rect x="283.5" y="-22.3" transform="matrix(-1.836970e-16 1 -1 -1.836970e-16 276.9643 -305.7882)" class="st5" width="15.7" height="15.7"/>
	
		<rect x="299.2" y="-22.3" transform="matrix(-1.836970e-16 1 -1 -1.836970e-16 292.7056 -321.5295)" class="st5" width="15.7" height="15.7"/>
	<rect x="315.1" y="-6.5" class="st5" width="15.7" height="15.7"/>
	
		<rect x="330.9" y="-6.5" transform="matrix(-1.836970e-16 1 -1 -1.836970e-16 340.0956 -337.4369)" class="st5" width="15.7" height="15.7"/>
	
		<rect x="299.2" y="-6.5" transform="matrix(-1.836970e-16 1 -1 -1.836970e-16 308.4469 -305.7882)" class="st5" width="15.7" height="15.7"/>
	<g>
		
			<rect x="283.5" y="-6.5" transform="matrix(-1.836970e-16 1 -1 -1.836970e-16 292.7056 -290.0469)" class="st3" width="15.7" height="15.7"/>
		
			<rect x="267.8" y="-6.5" transform="matrix(-1.836970e-16 1 -1 -1.836970e-16 276.9643 -274.3056)" class="st3" width="15.7" height="15.7"/>
		
			<rect x="283.5" y="9.2" transform="matrix(-1.836970e-16 1 -1 -1.836970e-16 308.4469 -274.3056)" class="st3" width="15.7" height="15.7"/>
		
			<rect x="267.8" y="9.2" transform="matrix(-1.836970e-16 1 -1 -1.836970e-16 292.7056 -258.5643)" class="st3" width="15.7" height="15.7"/>
		
			<rect x="267.8" y="24.9" transform="matrix(-1.836970e-16 1 -1 -1.836970e-16 308.4469 -242.823)" class="st3" width="15.7" height="15.7"/>
		
			<rect x="267.8" y="40.7" transform="matrix(-1.836970e-16 1 -1 -1.836970e-16 324.1882 -227.0817)" class="st3" width="15.7" height="15.7"/>
		
			<rect x="252" y="24.9" transform="matrix(-1.836970e-16 1 -1 -1.836970e-16 292.7056 -227.0817)" class="st3" width="15.7" height="15.7"/>
		
			<rect x="252" y="40.7" transform="matrix(-1.836970e-16 1 -1 -1.836970e-16 308.4469 -211.3405)" class="st3" width="15.7" height="15.7"/>
		
			<rect x="236.3" y="24.9" transform="matrix(-1.836970e-16 1 -1 -1.836970e-16 276.9643 -211.3405)" class="st3" width="15.7" height="15.7"/>
		
			<rect x="236.3" y="40.7" transform="matrix(-1.836970e-16 1 -1 -1.836970e-16 292.7056 -195.5992)" class="st3" width="15.7" height="15.7"/>
		
			<rect x="220.5" y="40.7" transform="matrix(-1.836970e-16 1 -1 -1.836970e-16 276.9643 -179.8579)" class="st3" width="15.7" height="15.7"/>
		
			<rect x="236.3" y="56.4" transform="matrix(-1.836970e-16 1 -1 -1.836970e-16 308.4469 -179.8579)" class="st3" width="15.7" height="15.7"/>
		
			<rect x="236.3" y="72.2" transform="matrix(-1.836970e-16 1 -1 -1.836970e-16 324.1882 -164.1166)" class="st3" width="15.7" height="15.7"/>
		
			<rect x="252" y="56.4" transform="matrix(-1.836970e-16 1 -1 -1.836970e-16 324.1882 -195.5992)" class="st3" width="15.7" height="15.7"/>
		
			<rect x="252" y="72.2" transform="matrix(-1.836970e-16 1 -1 -1.836970e-16 339.9294 -179.8579)" class="st3" width="15.7" height="15.7"/>
		
			<rect x="220.5" y="56.4" transform="matrix(-1.836970e-16 1 -1 -1.836970e-16 292.7056 -164.1166)" class="st3" width="15.7" height="15.7"/>
		
			<rect x="220.5" y="72.2" transform="matrix(-1.836970e-16 1 -1 -1.836970e-16 308.4469 -148.3753)" class="st3" width="15.7" height="15.7"/>
		
			<rect x="252" y="9.2" transform="matrix(-1.836970e-16 1 -1 -1.836970e-16 276.9643 -242.823)" class="st3" width="15.7" height="15.7"/>
	</g>
	<g>
		
			<rect x="346.7" y="-6.5" transform="matrix(-4.489316e-11 1 -1 -4.489316e-11 355.92 -353.2613)" class="st3" width="15.7" height="15.7"/>
		
			<rect x="362.5" y="-6.5" transform="matrix(-4.489316e-11 1 -1 -4.489316e-11 371.6613 -369.0026)" class="st3" width="15.7" height="15.7"/>
		
			<rect x="346.7" y="9.2" transform="matrix(-4.489316e-11 1 -1 -4.489316e-11 371.6613 -337.52)" class="st3" width="15.7" height="15.7"/>
		
			<rect x="362.5" y="9.2" transform="matrix(-4.489316e-11 1 -1 -4.489316e-11 387.4026 -353.2613)" class="st3" width="15.7" height="15.7"/>
		
			<rect x="362.5" y="24.9" transform="matrix(-4.489316e-11 1 -1 -4.489316e-11 403.1438 -337.52)" class="st3" width="15.7" height="15.7"/>
		
			<rect x="362.5" y="40.7" transform="matrix(-4.489316e-11 1 -1 -4.489316e-11 418.8851 -321.7787)" class="st3" width="15.7" height="15.7"/>
		
			<rect x="378.2" y="24.9" transform="matrix(-4.489316e-11 1 -1 -4.489316e-11 418.8851 -353.2613)" class="st3" width="15.7" height="15.7"/>
		
			<rect x="378.2" y="40.7" transform="matrix(-4.489316e-11 1 -1 -4.489316e-11 434.6264 -337.52)" class="st3" width="15.7" height="15.7"/>
		
			<rect x="393.9" y="24.9" transform="matrix(-4.489316e-11 1 -1 -4.489316e-11 434.6264 -369.0026)" class="st3" width="15.7" height="15.7"/>
		
			<rect x="393.9" y="40.7" transform="matrix(-4.489316e-11 1 -1 -4.489316e-11 450.3677 -353.2613)" class="st3" width="15.7" height="15.7"/>
		
			<rect x="409.7" y="40.7" transform="matrix(-4.489316e-11 1 -1 -4.489316e-11 466.109 -369.0026)" class="st3" width="15.7" height="15.7"/>
		
			<rect x="393.9" y="56.4" transform="matrix(-4.489316e-11 1 -1 -4.489316e-11 466.109 -337.52)" class="st3" width="15.7" height="15.7"/>
		
			<rect x="393.9" y="72.2" transform="matrix(-4.489316e-11 1 -1 -4.489316e-11 481.8503 -321.7787)" class="st3" width="15.7" height="15.7"/>
		
			<rect x="378.2" y="56.4" transform="matrix(-4.489316e-11 1 -1 -4.489316e-11 450.3677 -321.7787)" class="st3" width="15.7" height="15.7"/>
		
			<rect x="378.2" y="72.2" transform="matrix(-4.489316e-11 1 -1 -4.489316e-11 466.109 -306.0374)" class="st3" width="15.7" height="15.7"/>
		
			<rect x="409.7" y="56.4" transform="matrix(-4.489316e-11 1 -1 -4.489316e-11 481.8503 -353.2613)" class="st3" width="15.7" height="15.7"/>
		
			<rect x="409.7" y="72.2" transform="matrix(-4.489316e-11 1 -1 -4.489316e-11 497.5916 -337.52)" class="st3" width="15.7" height="15.7"/>
		
			<rect x="378.2" y="9.2" transform="matrix(-4.489316e-11 1 -1 -4.489316e-11 403.1438 -369.0026)" class="st3" width="15.7" height="15.7"/>
	</g>
	<rect x="315.1" y="9.2" class="st4" width="15.7" height="15.7"/>
	
		<rect x="330.9" y="9.2" transform="matrix(-1.836970e-16 1 -1 -1.836970e-16 355.8369 -321.6956)" class="st4" width="15.7" height="15.7"/>
	
		<rect x="299.2" y="9.2" transform="matrix(-1.836970e-16 1 -1 -1.836970e-16 324.1882 -290.0469)" class="st4" width="15.7" height="15.7"/>
	<rect x="315.1" y="40.7" class="st5" width="15.7" height="15.7"/>
	
		<rect x="330.9" y="40.7" transform="matrix(-1.836970e-16 1 -1 -1.836970e-16 387.3195 -290.213)" class="st5" width="15.7" height="15.7"/>
	
		<rect x="299.2" y="40.7" transform="matrix(-1.836970e-16 1 -1 -1.836970e-16 355.6707 -258.5643)" class="st5" width="15.7" height="15.7"/>
	<rect x="315.1" y="56.4" class="st4" width="15.7" height="15.7"/>
	<rect x="315.1" y="72.2" class="st4" width="15.7" height="15.7"/>
	
		<rect x="330.9" y="56.4" transform="matrix(-1.836970e-16 1 -1 -1.836970e-16 403.0608 -274.4718)" class="st4" width="15.7" height="15.7"/>
	
		<rect x="299.2" y="56.4" transform="matrix(-1.836970e-16 1 -1 -1.836970e-16 371.412 -242.823)" class="st4" width="15.7" height="15.7"/>
	<rect x="315.1" y="24.9" class="st4" width="15.7" height="15.7"/>
	
		<rect x="330.9" y="24.9" transform="matrix(-1.836970e-16 1 -1 -1.836970e-16 371.5782 -305.9543)" class="st4" width="15.7" height="15.7"/>
	
		<rect x="299.2" y="24.9" transform="matrix(-1.836970e-16 1 -1 -1.836970e-16 339.9294 -274.3056)" class="st4" width="15.7" height="15.7"/>
</g>
<rect x="-205.2" y="74" class="st0" width="7.7" height="7.7"/>
<rect x="-197.5" y="74" class="st0" width="7.7" height="7.7"/>
<rect x="-205.2" y="81.7" class="st0" width="7.7" height="7.7"/>
<rect x="-197.5" y="81.7" class="st0" width="7.7" height="7.7"/>
<rect x="-212.9" y="81.7" class="st0" width="7.7" height="7.7"/>
<rect x="-220.6" y="89.4" class="st0" width="7.7" height="7.7"/>
<rect x="-212.9" y="89.4" class="st0" width="7.7" height="7.7"/>
<rect x="-205.2" y="89.4" class="st0" width="7.7" height="7.7"/>
<rect x="-197.5" y="89.4" class="st0" width="7.7" height="7.7"/>
<rect x="-205.2" y="97" class="st0" width="7.7" height="7.7"/>
<rect x="-197.5" y="97" class="st0" width="7.7" height="7.7"/>
<rect x="-220.6" y="97" class="st0" width="7.7" height="7.7"/>
<rect x="-212.9" y="97" class="st0" width="7.7" height="7.7"/>
<rect x="-220.6" y="104.7" class="st0" width="7.7" height="7.7"/>
<rect x="-212.9" y="104.7" class="st0" width="7.7" height="7.7"/>
<rect x="-205.2" y="104.7" class="st0" width="7.7" height="7.7"/>
<rect x="-197.5" y="104.7" class="st0" width="7.7" height="7.7"/>
<rect x="-205.2" y="112.4" class="st0" width="7.7" height="7.7"/>
<rect x="-197.5" y="112.4" class="st0" width="7.7" height="7.7"/>
<rect x="-220.6" y="112.4" class="st0" width="7.7" height="7.7"/>
<rect x="-212.9" y="112.4" class="st0" width="7.7" height="7.7"/>
<rect x="-220.6" y="120.1" class="st0" width="7.7" height="7.7"/>
<rect x="-212.9" y="120.1" class="st0" width="7.7" height="7.7"/>
<rect x="-205.2" y="120.1" class="st0" width="7.7" height="7.7"/>
<rect x="-197.5" y="120.1" class="st0" width="7.7" height="7.7"/>
<rect x="-205.2" y="127.8" class="st0" width="7.7" height="7.7"/>
<rect x="-197.5" y="127.8" class="st0" width="7.7" height="7.7"/>
<rect x="-212.9" y="127.8" class="st0" width="7.7" height="7.7"/>
<rect x="-205.2" y="135.5" class="st0" width="7.7" height="7.7"/>
<rect x="-197.5" y="135.5" class="st0" width="7.7" height="7.7"/>
<rect x="-189.8" y="74" class="st0" width="7.7" height="7.7"/>
<rect x="-182.2" y="74" class="st0" width="7.7" height="7.7"/>
<rect x="-166.8" y="74" class="st0" width="7.7" height="7.7"/>
<rect x="-159.1" y="74" class="st0" width="7.7" height="7.7"/>
<rect x="-166.8" y="81.7" class="st0" width="7.7" height="7.7"/>
<rect x="-159.1" y="81.7" class="st0" width="7.7" height="7.7"/>
<rect x="-189.8" y="81.7" class="st0" width="7.7" height="7.7"/>
<rect x="-182.2" y="81.7" class="st0" width="7.7" height="7.7"/>
<rect x="-189.8" y="89.4" class="st0" width="7.7" height="7.7"/>
<rect x="-182.2" y="89.4" class="st0" width="7.7" height="7.7"/>
<rect x="-166.8" y="89.4" class="st0" width="7.7" height="7.7"/>
<rect x="-159.1" y="89.4" class="st0" width="7.7" height="7.7"/>
<rect x="-166.8" y="97" class="st0" width="7.7" height="7.7"/>
<rect x="-159.1" y="97" class="st0" width="7.7" height="7.7"/>
<rect x="-189.8" y="97" class="st0" width="7.7" height="7.7"/>
<rect x="-182.2" y="97" class="st0" width="7.7" height="7.7"/>
<rect x="-189.8" y="104.7" class="st0" width="7.7" height="7.7"/>
<rect x="-182.2" y="104.7" class="st0" width="7.7" height="7.7"/>
<rect x="-166.8" y="104.7" class="st0" width="7.7" height="7.7"/>
<rect x="-159.1" y="104.7" class="st0" width="7.7" height="7.7"/>
<rect x="-166.8" y="112.4" class="st0" width="7.7" height="7.7"/>
<rect x="-159.1" y="112.4" class="st0" width="7.7" height="7.7"/>
<rect x="-189.8" y="112.4" class="st0" width="7.7" height="7.7"/>
<rect x="-182.2" y="112.4" class="st0" width="7.7" height="7.7"/>
<rect x="-189.8" y="120.1" class="st0" width="7.7" height="7.7"/>
<rect x="-182.2" y="120.1" class="st0" width="7.7" height="7.7"/>
<rect x="-166.8" y="120.1" class="st0" width="7.7" height="7.7"/>
<rect x="-159.1" y="120.1" class="st0" width="7.7" height="7.7"/>
<rect x="-166.8" y="127.8" class="st0" width="7.7" height="7.7"/>
<rect x="-159.1" y="127.8" class="st0" width="7.7" height="7.7"/>
<rect x="-189.8" y="127.8" class="st0" width="7.7" height="7.7"/>
<rect x="-182.2" y="127.8" class="st0" width="7.7" height="7.7"/>
<rect x="-189.8" y="135.5" class="st0" width="7.7" height="7.7"/>
<rect x="-182.2" y="135.5" class="st0" width="7.7" height="7.7"/>
<rect x="-174.5" y="74" class="st0" width="7.7" height="7.7"/>
<rect x="-174.5" y="81.7" class="st0" width="7.7" height="7.7"/>
<rect x="-174.5" y="89.4" class="st0" width="7.7" height="7.7"/>
<rect x="-174.5" y="97" class="st0" width="7.7" height="7.7"/>
<rect x="-174.5" y="104.7" class="st0" width="7.7" height="7.7"/>
<rect x="-174.5" y="112.4" class="st0" width="7.7" height="7.7"/>
<rect x="-174.5" y="120.1" class="st0" width="7.7" height="7.7"/>
<rect x="-174.5" y="127.8" class="st0" width="7.7" height="7.7"/>
<rect x="-174.5" y="135.5" class="st0" width="7.7" height="7.7"/>
<rect x="-166.8" y="135.5" class="st0" width="7.7" height="7.7"/>
<rect x="-159.1" y="135.5" class="st0" width="7.7" height="7.7"/>
<rect x="-159.1" y="143.1" class="st0" width="7.7" height="7.7"/>
<rect x="-151.4" y="74" class="st0" width="7.7" height="7.7"/>
<rect x="-143.7" y="74" class="st0" width="7.7" height="7.7"/>
<rect x="-136" y="81.7" class="st0" width="7.7" height="7.7"/>
<rect x="-151.4" y="81.7" class="st0" width="7.7" height="7.7"/>
<rect x="-143.7" y="81.7" class="st0" width="7.7" height="7.7"/>
<rect x="-151.4" y="89.4" class="st0" width="7.7" height="7.7"/>
<rect x="-143.7" y="89.4" class="st0" width="7.7" height="7.7"/>
<rect x="-136" y="89.4" class="st0" width="7.7" height="7.7"/>
<rect x="-128.3" y="89.4" class="st0" width="7.7" height="7.7"/>
<rect x="-136" y="97" class="st0" width="7.7" height="7.7"/>
<rect x="-128.3" y="97" class="st0" width="7.7" height="7.7"/>
<rect x="-151.4" y="97" class="st0" width="7.7" height="7.7"/>
<rect x="-143.7" y="97" class="st0" width="7.7" height="7.7"/>
<rect x="-151.4" y="104.7" class="st0" width="7.7" height="7.7"/>
<rect x="-143.7" y="104.7" class="st0" width="7.7" height="7.7"/>
<rect x="-136" y="104.7" class="st0" width="7.7" height="7.7"/>
<rect x="-128.3" y="104.7" class="st0" width="7.7" height="7.7"/>
<rect x="-136" y="112.4" class="st0" width="7.7" height="7.7"/>
<rect x="-128.3" y="112.4" class="st0" width="7.7" height="7.7"/>
<rect x="-151.4" y="112.4" class="st0" width="7.7" height="7.7"/>
<rect x="-143.7" y="112.4" class="st0" width="7.7" height="7.7"/>
<rect x="-151.4" y="120.1" class="st0" width="7.7" height="7.7"/>
<rect x="-143.7" y="120.1" class="st0" width="7.7" height="7.7"/>
<rect x="-136" y="120.1" class="st0" width="7.7" height="7.7"/>
<rect x="-128.3" y="120.1" class="st0" width="7.7" height="7.7"/>
<rect x="-136" y="127.8" class="st0" width="7.7" height="7.7"/>
<rect x="-151.4" y="127.8" class="st0" width="7.7" height="7.7"/>
<rect x="-143.7" y="127.8" class="st0" width="7.7" height="7.7"/>
<rect x="-151.4" y="135.5" class="st0" width="7.7" height="7.7"/>
<rect x="-143.7" y="135.5" class="st0" width="7.7" height="7.7"/>
<rect x="-151.4" y="143.1" class="st0" width="7.7" height="7.7"/>
<rect x="-151.4" y="150.8" class="st0" width="7.7" height="7.7"/>
<rect x="-143.7" y="143.1" class="st0" width="7.7" height="7.7"/>
<rect x="-143.7" y="150.8" class="st0" width="7.7" height="7.7"/>
<rect x="-136" y="150.8" class="st0" width="7.7" height="7.7"/>
<g>
	<g>
		<rect x="7.7" y="148.3" class="st3" width="7.7" height="7.7"/>
		<rect x="15.4" y="156" class="st3" width="7.7" height="7.7"/>
		<rect x="23" y="163.7" class="st3" width="7.7" height="7.7"/>
	</g>
	<g>
		<rect x="69.2" y="163.7" class="st3" width="7.7" height="7.7"/>
		<rect x="76.9" y="156" class="st3" width="7.7" height="7.7"/>
		<rect x="84.6" y="148.3" class="st3" width="7.7" height="7.7"/>
	</g>
	<polygon class="st4" points="38.4,163.7 38.4,171.3 30.7,171.3 30.7,179 38.4,179 46.1,179 46.1,171.3 46.1,163.7 	"/>
	<rect x="30.7" y="163.7" class="st5" width="7.7" height="7.7"/>
	<polygon class="st4" points="61.5,171.3 61.5,163.7 53.8,163.7 53.8,171.3 53.8,179 61.5,179 69.2,179 69.2,171.3 	"/>
	<rect x="61.5" y="163.7" class="st5" width="7.7" height="7.7"/>
	<polygon class="st3" points="30.7,186.7 23,186.7 23,194.4 15.4,194.4 15.4,202.1 7.7,202.1 7.7,209.8 0,209.8 0,217.4 0,225.1 
		0,232.8 7.7,232.8 15.4,232.8 23,232.8 23,225.1 23,217.4 30.7,217.4 30.7,209.8 30.7,202.1 38.4,202.1 38.4,194.4 38.4,186.7 	"/>
	<polygon class="st3" points="92.3,209.8 92.3,202.1 84.6,202.1 84.6,194.4 77,194.4 77,186.7 69.3,186.7 61.6,186.7 61.6,194.4 
		61.6,202.1 69.3,202.1 69.3,209.8 69.3,217.4 77,217.4 77,225.1 77,232.8 84.6,232.8 92.3,232.8 100,232.8 100,225.1 100,217.4 
		100,209.8 	"/>
	<rect x="38.4" y="194.4" class="st4" width="23.1" height="15.4"/>
	<rect x="38.4" y="209.8" class="st5" width="23.2" height="7.7"/>
	<polygon class="st4" points="38.4,217.4 38.4,225.1 46.1,225.1 46.1,232.8 53.8,232.8 53.8,225.1 61.6,225.1 61.6,217.4 	"/>
	<polygon class="st5" points="61.5,179 61.5,179 53.9,179 53.8,179 53.8,171.3 53.8,163.7 53.8,156 46.1,156 46.1,163.7 46.1,171.3 
		46.1,179 46.1,179 38.4,179 30.7,179 30.7,186.7 38.4,186.7 38.4,194.4 46.1,194.4 46.1,194.4 53.8,194.4 53.9,194.4 61.5,194.4 
		61.5,194.4 61.5,186.7 69.2,186.7 69.2,179 	"/>
</g>
<polygon class="st0" points="92.3,23.1 92.3,15.4 84.6,15.4 84.6,7.7 76.9,7.7 76.9,7.7 69.2,7.7 69.2,7.7 61.5,7.7 53.8,7.7 
	53.8,7.7 46.1,7.7 46.1,7.7 38.4,7.7 30.7,7.7 30.7,7.7 23,7.7 15.4,7.7 15.4,15.4 7.7,15.4 7.7,23.1 0,23.1 0,30.8 0,38.5 0,46.2 
	0,53.8 0,61.5 7.7,61.5 7.7,69.2 15.4,69.2 15.4,76.9 23,76.9 30.7,76.9 30.7,76.9 38.4,76.9 46.1,76.9 46.1,76.9 53.8,76.9 
	53.8,76.9 61.5,76.9 61.5,84.6 69.2,84.6 69.2,84.6 69.2,92.3 76.9,92.3 76.9,92.3 84.6,92.3 92.3,92.3 92.3,84.6 84.6,84.6 
	84.6,76.9 84.6,69.2 92.3,69.2 92.3,61.5 99.9,61.5 99.9,53.8 99.9,46.2 99.9,38.5 99.9,30.8 99.9,23.1 "/>
</svg>
