<?xml version="1.0" encoding="utf-8"?>
<!-- Generator: Adobe Illustrator 24.0.0, SVG Export Plug-In . SVG Version: 6.00 Build 0)  -->
<svg version="1.1" id="Layer_1" xmlns="http://www.w3.org/2000/svg" xmlns:xlink="http://www.w3.org/1999/xlink" x="0px" y="0px"
	 viewBox="0 0 100 100" style="enable-background:new 0 0 100 100;" xml:space="preserve">
<style type="text/css">
	.st0{fill:#FFFFFF;}
	.st1{stroke:#EE3824;stroke-miterlimit:10;}
	.st2{fill:#FFFFFF;stroke:#EE3824;stroke-miterlimit:10;}
	.st3{fill:#3261AD;}
	.st4{fill:#ED1C24;}
	.st5{fill:#F1E902;}
	.st6{fill:#E0DEDE;}
</style>
<g>
	<g id="XMLID_1_">
		<polygon class="st6" points="100,53.8 100,61.5 92.3,61.5 92.3,53.8 92.3,46.2 92.3,38.5 92.3,30.8 92.3,23.1 100,23.1 100,30.8 
			100,38.5 100,46.2 		"/>
		<polygon class="st6" points="92.3,84.6 92.3,92.3 84.6,92.3 76.9,92.3 69.2,92.3 69.2,84.6 76.9,84.6 76.9,76.9 76.9,69.2 
			84.6,69.2 84.6,76.9 84.6,84.6 		"/>
		<rect x="84.6" y="61.5" class="st6" width="7.7" height="7.7"/>
		<polygon class="st0" points="92.3,53.8 92.3,61.5 84.6,61.5 84.6,69.2 76.9,69.2 76.9,76.9 76.9,84.6 69.2,84.6 69.2,84.6 
			69.2,76.9 61.5,76.9 61.5,69.2 59.1,69.2 53.8,69.2 46.1,69.2 40.9,69.2 38.4,69.2 30.8,69.2 23.1,69.2 15.4,69.2 15.4,61.5 
			7.7,61.5 7.7,53.8 7.7,46.2 7.7,38.5 7.7,30.8 7.7,23.1 15.4,23.1 15.4,15.4 23.1,15.4 30.8,15.4 38.4,15.4 41.1,15.4 61.5,15.4 
			69.2,15.4 76.9,15.4 81.9,15.4 84.6,15.4 84.6,23.1 92.3,23.1 92.3,30.8 92.3,38.5 92.3,46.2 		"/>
		<rect x="84.6" y="15.4" class="st6" width="7.7" height="7.7"/>
		<polygon class="st6" points="84.6,7.7 84.6,15.4 81.9,15.4 76.9,15.4 69.2,15.4 61.5,15.4 41.1,15.4 38.4,15.4 30.8,15.4 
			23.1,15.4 15.4,15.4 15.4,7.7 23.1,7.7 30.8,7.7 38.4,7.7 41.1,7.7 61.5,7.7 69.2,7.7 76.9,7.7 81.9,7.7 		"/>
		<rect x="61.5" y="76.9" class="st6" width="7.7" height="7.7"/>
		<polygon class="st6" points="61.5,69.2 61.5,76.9 59.1,76.9 53.8,76.9 46.1,76.9 40.9,76.9 38.4,76.9 30.8,76.9 23.1,76.9 
			15.4,76.9 15.4,69.2 23.1,69.2 30.8,69.2 38.4,69.2 40.9,69.2 46.1,69.2 53.8,69.2 59.1,69.2 		"/>
		<rect x="7.7" y="61.5" class="st6" width="7.7" height="7.7"/>
		<rect x="7.7" y="15.4" class="st6" width="7.7" height="7.7"/>
		<polygon class="st6" points="7.7,53.8 7.7,61.5 0,61.5 0,53.8 0,46.2 0,38.5 0,30.8 0,23.1 7.7,23.1 7.7,30.8 7.7,38.5 7.7,46.2 
					"/>
	</g>
</g>
</svg>
