<svg xmlns="http://www.w3.org/2000/svg" viewBox="0 0 100 84.51"><defs><style>.a{fill:#fff;}</style></defs><title>bubble</title><polygon class="a" points="92.26 15.37 92.26 7.68 84.57 7.68 84.57 0 76.89 0 76.89 0 69.21 0 69.17 0 61.48 0 53.8 0 53.79 0 46.11 0 46.1 0 38.41 0 30.73 0 30.73 0 23.05 0 15.37 0 15.37 7.68 7.68 7.68 7.68 15.37 0 15.37 0 23.05 0 30.73 0 38.41 0 46.1 0 53.78 7.68 53.78 7.68 61.46 15.37 61.46 15.37 69.15 23.05 69.15 30.73 69.15 30.73 69.15 38.41 69.15 46.1 69.15 46.11 69.15 53.79 69.15 53.8 69.15 61.48 69.15 61.48 76.83 69.17 76.83 69.21 76.83 69.21 84.51 76.89 84.51 76.89 84.51 84.57 84.51 92.26 84.51 92.26 76.83 84.57 76.83 84.57 69.15 84.57 61.46 92.26 61.46 92.26 53.78 99.94 53.78 99.94 46.1 99.94 38.41 99.94 30.73 99.94 23.05 99.94 15.37 92.26 15.37"/></svg>