<svg xmlns="http://www.w3.org/2000/svg" viewBox="0 0 100 84.51"><defs><style>.a{fill:#3261ad;}.b{fill:#ed1c24;}.c{fill:#f1e902;}</style></defs><title>bug-01</title><rect class="a" x="7.68" width="7.68" height="7.68"/><rect class="a" x="15.37" y="7.68" width="7.68" height="7.68"/><rect class="a" x="23.05" y="15.37" width="7.68" height="7.68"/><rect class="a" x="69.19" y="15.37" width="7.68" height="7.68"/><rect class="a" x="76.87" y="7.68" width="7.68" height="7.68"/><rect class="a" x="84.55" width="7.68" height="7.68"/><polygon class="b" points="38.41 15.37 38.41 23.05 30.73 23.05 30.73 30.73 38.41 30.73 46.1 30.73 46.1 23.05 46.1 15.37 38.41 15.37"/><rect class="c" x="30.73" y="15.37" width="7.68" height="7.68"/><polygon class="b" points="61.5 23.05 61.5 15.37 53.82 15.37 53.82 23.05 53.82 30.73 61.5 30.73 69.19 30.73 69.19 23.05 61.5 23.05"/><rect class="c" x="61.5" y="15.37" width="7.68" height="7.68"/><polygon class="a" points="30.73 38.41 23.05 38.41 23.05 46.1 15.37 46.1 15.37 53.78 7.68 53.78 7.68 61.46 0 61.46 0 69.15 0 76.83 0 84.51 7.68 84.51 15.37 84.51 23.05 84.51 23.05 76.83 23.05 69.15 30.73 69.15 30.73 61.46 30.73 53.78 38.41 53.78 38.41 46.1 38.41 38.41 30.73 38.41"/><polygon class="a" points="92.32 61.46 92.32 53.78 84.63 53.78 84.63 46.1 76.95 46.1 76.95 38.41 69.27 38.41 61.59 38.41 61.59 46.1 61.59 53.78 69.27 53.78 69.27 61.46 69.27 69.15 76.95 69.15 76.95 76.83 76.95 84.51 84.63 84.51 92.32 84.51 100 84.51 100 76.83 100 69.15 100 61.46 92.32 61.46"/><rect class="b" x="38.41" y="46.1" width="23.13" height="15.37"/><rect class="c" x="38.41" y="61.46" width="23.17" height="7.68"/><polygon class="b" points="38.41 69.15 38.41 76.83 46.14 76.83 46.14 84.51 53.82 84.51 53.82 76.83 61.59 76.83 61.59 69.15 38.41 69.15"/><polygon class="c" points="61.55 30.73 61.5 30.73 53.86 30.73 53.82 30.73 53.82 23.05 53.82 15.37 53.82 7.68 46.14 7.68 46.14 15.37 46.14 23.05 46.14 30.73 46.1 30.73 38.41 30.73 30.73 30.73 30.73 38.41 38.41 38.41 38.41 46.1 46.1 46.1 46.14 46.1 53.82 46.1 53.86 46.1 61.5 46.1 61.55 46.1 61.55 38.41 69.23 38.41 69.23 30.73 61.55 30.73"/></svg>