<svg id="Layer_1" data-name="Layer 1" xmlns="http://www.w3.org/2000/svg" viewBox="0 0 2164.44 348.79"><title>exportnext round</title><rect x="25.26" y="298.27" width="2113.91" height="25.26" style="fill:#26AD5E"/><polygon points="2139.18 25.26 2139.18 0 25.26 0 25.26 25.26 13.03 25.26 0 25.26 0 298.26 13.03 298.26 25.26 298.26 2164.44 298.26 2164.44 25.26 2139.18 25.26" style="fill:#26AD5E"/><rect x="25.26" y="323.53" width="2113.91" height="25.26" style="fill:#0b8746"/><polyline points="0 298.27 0 323.51 25.26 323.51 25.26 298.27" style="fill:#0b8746"/><polyline points="2139.18 298.27 2139.18 323.51 2164.44 323.51 2164.44 298.27" style="fill:#0b8746"/><path d="M149.72,227.78v-125h150v25h25v100h-50v-100h-75v100Z" style="fill:#fff"/><path d="M374.72,227.78v-25h-25v-75h25v-25h125v25h25v50h-125v25h100v25Zm25-75h75v-25h-75Z" style="fill:#fff"/><path d="M549.72,227.78v-25h25v-25h25v-25h-25v-25h-25v-25h50v25h25v25h25v-25h25v-25h50v25h-25v25h-25v25h25v25h25v25h-50v-25h-25v-25h-25v25h-25v25Z" style="fill:#fff"/><path d="M824.72,227.78v-100h-50v-25h50v-50h50v50h50v25h-50v100Z" style="fill:#fff"/><path d="M1114.72,127.78h25v25h-25v75h-50v-125h50Zm100-25v25h-75v-25Z" style="fill:#fff"/><path d="M1264.72,227.78v-25h-25v-75h25v-25h125v25h25v75h-25v25Zm25-25h75v-75h-75Z" style="fill:#fff"/><path d="M1464.72,227.78v-25h-25v-100h50v100h75v-100h50v125Z" style="fill:#fff"/><path d="M1639.72,227.78v-125h150v25h25v100h-50v-100h-75v100Z" style="fill:#fff"/><path d="M1864.72,227.78v-25h-25v-75h25v-25h100v-50h50v175Zm25-25h75v-75h-75Z" style="fill:#fff"/></svg>