<svg id="Layer_1" data-name="Layer 1" xmlns="http://www.w3.org/2000/svg" viewBox="0 0 545.1 348.79"><title>exportgo</title><rect x="25.26" y="298.27" width="494.57" height="25.26" style="fill:#17c671"/><polygon points="519.83 25.26 519.83 0 25.26 0 25.26 25.26 13.03 25.26 0 25.26 0 298.26 13.03 298.26 25.26 298.26 545.1 298.26 545.1 25.26 519.83 25.26" style="fill:#17c671"/><path d="M110,236.76v-25H210v-25H110v-25H85v-50h25v-25H260v125H235v25Zm25-75h75v-50H135Z" style="fill:#fff"/><path d="M310,211.76v-25H285v-75h25v-25H435v25h25v75H435v25Zm25-25h75v-75H335Z" style="fill:#fff"/><rect x="25.26" y="323.53" width="494.57" height="25.26" style="fill:#0b8746"/><polyline points="0 298.27 0 323.51 25.26 323.51 25.26 298.27" style="fill:#0b8746"/><polyline points="519.83 298.27 519.83 323.51 545.1 323.51 545.1 298.27" style="fill:#0b8746"/></svg>