<svg id="Layer_1" data-name="Layer 1" xmlns="http://www.w3.org/2000/svg" viewBox="0 0 2164.44 348.79"><title>svgs-start over</title><polygon points="2164.44 25.26 2139.18 25.26 2139.18 0 25.26 0 25.26 25.26 13.03 25.26 0 25.26 0 298.26 13.03 298.26 25.26 298.26 25.26 323.53 2139.18 323.53 2139.18 298.26 2164.44 298.26 2164.44 25.26" style="fill:#17c671"/><rect x="25.26" y="323.53" width="2113.91" height="25.26" style="fill:#0b8746"/><polyline points="0 298.27 0 323.51 25.26 323.51 25.26 298.27" style="fill:#0b8746"/><polyline points="2139.18 298.27 2139.18 323.51 2164.44 323.51 2164.44 298.27" style="fill:#0b8746"/><path d="M145.32,237.78v-25h125v-25h-100v-25h-25v-25h25v-25h125v25h-100v25h100v25h25v25h-25v25Z" style="fill:#fff"/><path d="M411.12,237.78v-100h-50v-25h50v-50h50v50h50v25h-50v100Z" style="fill:#fff"/><path d="M551.92,237.78v-25h-25v-25h25v-25h100v-25h-100v-25h125v25h25v100Zm25-25h75v-25h-75Z" style="fill:#fff"/><path d="M792.72,137.78h25v25h-25v75h-50v-125h50Zm100-25v25h-75v-25Z" style="fill:#fff"/><path d="M983.52,237.78v-100h-50v-25h50v-50h50v50h50v25h-50v100Z" style="fill:#fff"/><path d="M1269.12,237.78v-25h-25v-75h25v-25h125v25h25v75h-25v25Zm25-25h75v-75h-75Z" style="fill:#fff"/><path d="M1519.12,237.78v-25h-25v-25h-25v-75h50v75h50v-75h50v75h-25v25h-25v25Z" style="fill:#fff"/><path d="M1669.12,237.78v-25h-25v-75h25v-25h125v25h25v50h-125v25h100v25Zm25-75h75v-25h-75Z" style="fill:#fff"/><path d="M1919.12,137.78h25v25h-25v75h-50v-125h50Zm100-25v25h-75v-25Z" style="fill:#fff"/></svg>