<svg id="Layer_1" data-name="Layer 1" xmlns="http://www.w3.org/2000/svg" viewBox="0 0 777.02 348.79"><title>svgs-go!</title><polygon points="776.77 25.26 751.51 25.26 751.51 0 25.26 0 25.26 25.26 13.03 25.26 0 25.26 0 298.26 13.03 298.26 25.26 298.26 25.26 323.53 751.51 323.53 751.51 298.26 776.77 298.26 776.77 25.26" style="fill:#26AD5E"/><rect x="25.26" y="323.53" width="726.25" height="25.26" style="fill:#0b8746"/><polyline points="0 298.27 0 323.51 25.26 323.51 25.26 298.27" style="fill:#0b8746"/><polyline points="751.51 298.27 751.51 323.51 776.77 323.51 776.77 298.27" style="fill:#0b8746"/><path d="M171,234.4v-25H271v-25H171v-25H146v-50h25v-25H321v125H296v25Zm25-75h75v-50H196Z" style="fill:#fff"/><path d="M371,209.4v-25H346v-75h25v-25H496v25h25v75H496v25Zm25-25h75v-75H396Z" style="fill:#fff"/><path d="M556,159.4V34.4h75v75H606v50Zm0,50v-25h50v25Z" style="fill:#fff"/></svg>