<svg id="Layer_1" data-name="Layer 1" xmlns="http://www.w3.org/2000/svg" viewBox="0 0 1424.44 348.79"><title>svgs-back arrows</title><polygon points="1424.44 25.26 1399.18 25.26 1399.18 0 25.26 0 25.26 25.26 13.03 25.26 0 25.26 0 298.26 13.03 298.26 25.26 298.26 25.26 323.53 1399.18 323.53 1399.18 298.26 1424.44 298.26 1424.44 25.26" style="fill:#26AD5E"/><rect x="25.26" y="323.53" width="1373.91" height="25.26" style="fill:#0b8746"/><polyline points="0 298.27 0 323.51 25.26 323.51 25.26 298.27" style="fill:#0b8746"/><polyline points="1399.18 298.27 1399.18 323.51 1424.44 323.51 1424.44 298.27" style="fill:#0b8746"/><path d="M179.42,237.78v-25h-25v-25h-25v-25h-25v-25h25v-25h25v-25h25v-25h50v25h-25v25h-25v25h-25v25h25v25h25v25h25v25Z" style="fill:#fff"/><path d="M339.42,237.78v-25h-25v-25h-25v-25h-25v-25h25v-25h25v-25h25v-25h50v25h-25v25h-25v25h-25v25h25v25h25v25h25v25Z" style="fill:#fff"/><path d="M516.38,237.78v-25h-25v-150h50v50h100v25h25v75h-25v25Zm25-25h75v-75h-75Z" style="fill:#fff"/><path d="M716.38,237.78v-25h-25v-25h25v-25h100v-25h-100v-25h125v25h25v100Zm25-25h75v-25h-75Z" style="fill:#fff"/><path d="M916.38,237.78v-25h-25v-75h25v-25h150v25h-125v75h125v25Z" style="fill:#fff"/><path d="M1091.38,237.78v-175h50v100h50v-25h25v-25h50v25h-25v25h-25v25h25v25h25v25h-50v-25h-25v-25h-50v50Z" style="fill:#fff"/></svg>