<svg id="Layer_1" data-name="Layer 1" xmlns="http://www.w3.org/2000/svg" viewBox="0 0 2164.44 348.79"><title>svgs-end session red</title><polygon points="2164.44 25.26 2139.18 25.26 2139.18 0 25.26 0 25.26 25.26 13.03 25.26 0 25.26 0 298.26 13.03 298.26 25.26 298.26 25.26 323.53 2139.18 323.53 2139.18 298.26 2164.44 298.26 2164.44 25.26" style="fill:#c4183c"/><rect x="25.26" y="323.53" width="2113.91" height="25.26" style="fill:#700606"/><polyline points="0 298.27 0 323.51 25.26 323.51 25.26 298.27" style="fill:#700606"/><polyline points="2139.18 298.27 2139.18 323.51 2164.44 323.51 2164.44 298.27" style="fill:#700606"/><path d="M129.42,237.78v-25h-25v-75h25v-25h125v25h25v50h-125v25h100v25Zm25-75h75v-25h-75Z" style="fill:#fff"/><path d="M304.42,237.78v-125h150v25h25v100h-50v-100h-75v100Z" style="fill:#fff"/><path d="M529.42,237.78v-25h-25v-75h25v-25h100v-50h50v175Zm25-25h75v-75h-75Z" style="fill:#fff"/><path d="M800,237.78v-25H925v-25H825v-25H800v-25h25v-25H950v25H850v25H950v25h25v25H950v25Z" style="fill:#fff"/><path d="M1014,237.78v-25H989v-75h25v-25h125v25h25v50H1039v25h100v25Zm25-75h75v-25h-75Z" style="fill:#fff"/><path d="M1169,237.78v-25h125v-25H1194v-25h-25v-25h25v-25h125v25H1219v25h100v25h25v25h-25v25Z" style="fill:#fff"/><path d="M1349,237.78v-25h125v-25H1374v-25h-25v-25h25v-25h125v25H1399v25h100v25h25v25h-25v25Z" style="fill:#fff"/><path d="M1530,237.78v-25h50v-75h-25v-25h75v100h50v25Zm50-150v-25h50v25Z" style="fill:#fff"/><path d="M1710,237.78v-25h-25v-75h25v-25h125v25h25v75h-25v25Zm25-25h75v-75h-75Z" style="fill:#fff"/><path d="M1885,237.78v-125h150v25h25v100h-50v-100h-75v100Z" style="fill:#fff"/></svg>